<svg width="40" height="34" viewBox="0 0 40 34" fill="none" xmlns="http://www.w3.org/2000/svg">
<path d="M23.2314 0C25.1471 0.00019965 26.8085 1.26111 27.2734 3.06641L28.1514 6.47559H40V26.7139C40 30.7314 36.635 34 32.5 34H7.5C3.36499 34 3.97431e-05 30.7314 0 26.7139V6.47559H11.8496L12.7266 3.06641C13.1916 1.26097 14.8537 0 16.7695 0H23.2314ZM1.66699 8.09473V26.7139C1.66703 29.8383 4.28338 32.3808 7.5 32.3809H32.5C35.7167 32.3809 38.3339 29.8383 38.334 26.7139V8.09473H1.66699ZM23.333 12.9521V16.999H27.5V23.4756H23.333V27.5234H16.667V23.4756H12.5V16.999H16.667V12.9521H23.333ZM18.333 14.5703V18.6182H14.167V21.8564H18.333V25.9043H21.667V21.8564H25.833V18.6182H21.667V14.5703H18.333ZM16.7695 1.61914C15.6205 1.61914 14.6231 2.3757 14.3447 3.45801L13.5674 6.47559H26.4326L25.6562 3.45801C25.3779 2.37575 24.3804 1.61934 23.2314 1.61914H16.7695Z" fill="#2167AE"/>
</svg>
