<svg width="36" height="40" viewBox="0 0 36 40" fill="none" xmlns="http://www.w3.org/2000/svg">
<path d="M1.79976 15.6016C4.20509 12.7237 6.37308 12.479 7.4521 12.5918C8.53108 12.7047 9.45166 13.2503 9.84761 14.0215L9.88765 14.1055C10.6696 16.3532 11.8873 20.2944 11.2539 21.4043C11.1153 21.6394 10.897 21.8082 10.6396 21.874C10.313 21.9587 8.92686 22.5702 8.5605 23.8867C8.17446 25.2974 9.11545 27.0938 11.2832 29.1064C15.6877 33.1784 18.0238 31.515 19.291 30.6309C19.7067 30.3299 20.0143 30.123 20.4003 30.123C20.9966 30.1235 27.6853 31.3553 28.1406 33.2266C28.2693 33.7536 28.8141 36.4618 27.2109 38.3145C26.2408 39.4337 24.7157 39.998 22.6865 39.998L22.6767 39.9883H22.33C15.8661 39.7907 8.68957 36.7154 5.2646 32.6807C-0.169677 26.276 -1.52592 19.5799 1.79976 15.6016ZM7.02632 13.8896C6.16508 13.8897 4.67035 14.2846 2.87886 16.4287C-0.0215115 19.8992 1.335 25.9468 6.33394 31.8438C9.53132 35.6151 16.2724 38.4834 22.3701 38.6621C24.132 38.7091 25.3993 38.3142 26.1318 37.4678C27.319 36.0951 26.8745 33.933 26.7753 33.5088C26.3893 32.7847 21.5985 31.5145 20.4794 31.4297C20.3904 31.4767 20.2419 31.5902 20.1132 31.6748C18.7472 32.6435 15.5597 34.8908 10.3134 30.0381C7.72982 27.6492 6.69016 25.4577 7.2148 23.5391C7.68997 21.818 9.27375 20.9339 10.0459 20.6611C10.1646 19.8617 9.41258 16.9652 8.57124 14.5576C8.40298 14.2661 7.94727 13.9555 7.28413 13.8896C7.20494 13.8896 7.11555 13.8799 7.01656 13.8799L7.02632 13.8896ZM18.4326 10.9766C18.4326 17.1556 24.0054 23.7956 25.1142 25.0654C25.1835 25.1407 25.2828 25.1875 25.3818 25.1875H27.6484C27.7573 25.1875 27.8564 25.1407 27.9257 25.0654C29.0443 23.7958 34.6072 17.1465 34.6074 10.9863H35.9931C35.9929 17.438 30.6285 24.0405 28.9853 25.9121C28.6487 26.2883 28.1631 26.5039 27.6484 26.5039L27.6582 26.4951H25.3916C24.8769 26.4951 24.3922 26.2784 24.0556 25.9023C22.4124 24.0401 17.0468 17.4378 17.0468 10.9766H18.4326ZM26.5283 4.97656C29.0523 4.97656 31.111 6.93259 31.1113 9.32129C31.1113 11.7102 29.0525 13.6758 26.5283 13.6758C24.0041 13.6757 21.9453 11.7195 21.9453 9.32129C21.9455 6.92324 24.0043 4.97665 26.5283 4.97656ZM26.5283 6.29297C24.7665 6.29306 23.3312 7.65684 23.331 9.32129C23.331 10.9859 24.7664 12.3593 26.5283 12.3594C28.2903 12.3594 29.7255 10.9954 29.7255 9.32129C29.7253 7.64738 28.2901 6.29297 26.5283 6.29297ZM26.5283 0C31.7546 0.000217033 36.0008 4.25112 36.0009 9.4707H34.6152C34.6151 4.97531 30.9825 1.31663 26.5283 1.31641C22.0738 1.31641 18.4405 4.97517 18.4404 9.4707H17.0546C17.0547 4.25098 21.3017 0 26.5283 0Z" fill="#005B94"/>
</svg>
