<svg width="48" height="40" viewBox="0 0 48 40" fill="none" xmlns="http://www.w3.org/2000/svg">
<path fill-rule="evenodd" clip-rule="evenodd" d="M46.2 35.3599C45.34 34.5099 44.2 34.04 42.98 34.04C41.74 34.04 40.62 34.5099 39.76 35.3599L38 37.1099C36.85 38.2499 34.83 38.2499 33.69 37.1099L32.53 35.96C32.71 35.74 32.9 35.53 33.06 35.29L43.61 20.1001L34.99 15.8701V11C34.99 8.24 32.77 6 29.98 6C29.98 2.69 27.28 0 23.94 0C20.6 0 17.96 2.69 17.96 6C15.17 6 12.99 8.24 12.99 11V15.8701L4.34 20.1001L14.98 35.3101C15.14 35.5401 15.3 35.74 15.48 35.96L14.31 37.1201C13.74 37.6901 12.96 38 12.14 38C11.32 38 10.56 37.6799 9.98001 37.1099L8.22 35.3398C7.36 34.4898 6.22 34 5 34C3.79 34 2.64001 34.4801 1.79001 35.3301L0 37.1001L1.43002 38.52L3.22 36.7598C3.7 36.2898 4.33001 36.0298 5.01001 36.0298C5.70001 36.0298 6.33002 36.29 6.80002 36.77L8.56 38.52C9.52 39.47 10.79 40 12.15 40C13.51 40 14.78 39.4798 15.74 38.5298L16.88 37.3999C18.85 39.0499 21.36 40 24.01 40H24.02C26.66 40 29.17 39.0499 31.13 37.3999L32.27 38.5298C33.23 39.4798 34.5 40 35.86 40C37.22 40 38.49 39.4798 39.45 38.5298L41.21 36.7598C41.69 36.2898 42.32 36 43 36C43.68 36 44.31 36.28 44.79 36.75L46.57 38.52L48 37.1099L46.22 35.3501L46.2 35.3599ZM23.96 2C26.19 2 28.01 3.79 28.01 6H19.92C19.92 3.79 21.74 2 23.97 2H23.96ZM14.98 11C14.98 9.35 16.21 8 17.89 8H30.03C31.7 8 32.99 9.35 32.99 11V14.8799L23.99 10.3901L14.99 14.8799V11H14.98ZM23.99 38H23.98C20.99 38 18.3 36.6002 16.59 34.1802L7.25 20.8701L23.96 12.6201L40.67 20.8701L31.39 34.1602C29.69 36.6002 26.99 38 24 38H23.99Z" fill="#2167AE"/>
</svg>
