<svg width="36" height="40" viewBox="0 0 36 40" fill="none" xmlns="http://www.w3.org/2000/svg">
<path fill-rule="evenodd" clip-rule="evenodd" d="M9.42857 40V35.8915C9.42857 35.1416 9.80572 34.4283 10.4366 33.9815L10.5248 33.9274L14.8637 31.5857L14.2757 23.3809L0 28.2593V23.8615C0 23.2882 0 21.5434 1.54112 20.6108L13.7143 13.2874V10.505C13.7143 4.01937 14.4309 0 18 0C21.5683 0 22.2857 4.01937 22.2857 10.505V13.2882L34.434 20.6132C35.4857 21.2374 36 22.3067 36 23.879V28.2576L21.7252 23.4041L21.1946 31.58L25.6037 33.9335C26.2191 34.3693 26.5714 35.0651 26.5714 35.8415V39.9434L18.0026 37.4381L9.42857 40ZM11.4111 35.3548C11.2423 35.4891 11.1429 35.6868 11.1429 35.8915V37.7441L17.9974 35.6966L24.8571 37.7018V35.8415C24.8571 35.7092 24.8263 35.4692 24.6274 35.3052L19.4177 32.535L20.1514 21.1027L34.2857 25.909V23.879C34.2857 22.6367 33.8846 22.24 33.5357 22.0325L20.5714 14.2159V10.505C20.5714 2.73763 19.3354 1.66667 18 1.66667C16.6637 1.66667 15.4286 2.73763 15.4286 10.505V14.2167L2.44545 22.0268C2.10597 22.2319 1.71429 22.6274 1.71429 23.8615V25.9074L15.8357 21.0807L16.6466 32.5293L11.4111 35.3548Z" fill="#2167AE"/>
</svg>
