<svg width="34" height="40" viewBox="0 0 34 40" fill="none" xmlns="http://www.w3.org/2000/svg">
<path d="M34 3.06543V17.1924C34 34.0339 17.4543 39.8455 17.2783 39.9043L16.9971 40L16.7158 39.9023C16.5484 39.844 0 33.8841 0 17.1924V3.06543L17 0L34 3.06543ZM1.7002 4.45117V17.1924C1.7002 31.5641 14.9117 37.3952 17.0078 38.2285C19.194 37.4035 32.3008 31.8449 32.3008 17.1924V4.45117L17 1.69141L1.7002 4.45117ZM26.332 10.8408L17.3789 25.833L9.33105 18.0488L10.5596 16.8613L17.0059 23.0977L24.8271 10L26.332 10.8408Z" fill="#2167AE"/>
</svg>
