<svg width="288" height="86" viewBox="0 0 288 86" fill="none" xmlns="http://www.w3.org/2000/svg">
<g clip-path="url(#clip0_582_495)">
<path d="M287.578 3.82022C287.578 5.89956 286.024 7.4944 283.944 7.4944C281.864 7.4944 280.289 5.839 280.289 3.82022C280.289 1.80144 281.905 0.125854 283.944 0.125854C285.983 0.125854 287.578 1.80144 287.578 3.82022ZM281.077 3.82022C281.077 5.41506 282.329 6.72726 283.924 6.72726C285.519 6.72726 286.771 5.45543 286.771 3.82022C286.771 2.18501 285.519 0.892991 283.924 0.892991C282.329 0.892991 281.077 2.2052 281.077 3.82022ZM282.51 1.90238H284.045C284.752 1.90238 285.499 2.14463 285.499 3.0329C285.499 3.92116 285.075 3.96153 284.57 4.08266L285.68 5.69769H284.691L283.661 4.14323H283.379V5.69769H282.51V1.92257V1.90238ZM283.379 2.58877V3.49722H283.984C284.348 3.49722 284.59 3.39628 284.59 3.0329C284.59 2.66952 284.328 2.58877 283.984 2.58877H283.379Z" fill="#003D6E"/>
<path d="M195.891 26.8343C195.891 30.7306 190.48 32.063 189.914 32.1033C189.288 32.063 183.837 30.7104 183.837 26.8343V11.3705H178.426V26.8343C178.426 34.7278 187.532 37.5137 189.854 37.5137C192.176 37.5137 201.282 34.8489 201.282 26.8343V11.3705H195.871V26.8343H195.891Z" fill="#003D6E"/>
<path d="M271.648 0.125854V14.3583C269.588 12.0367 266.701 10.7648 263.369 10.7648C256.303 10.7648 250.992 16.5183 250.992 24.1291C250.992 31.7399 256.303 37.5338 263.369 37.5338C270.436 37.5338 269.568 36.2216 271.648 33.8193V36.9282H277.039V0.125854H271.648ZM263.955 32.4465C259.614 32.4465 256.202 28.7925 256.202 24.1291C256.202 19.4658 259.533 15.8521 263.955 15.8521C268.377 15.8521 271.648 19.4052 271.648 24.1291C271.648 28.8531 268.336 32.4465 263.955 32.4465Z" fill="#003D6E"/>
<path d="M225.43 14.3582C223.371 12.0366 220.484 10.7648 217.152 10.7648C210.085 10.7648 204.775 16.5183 204.775 24.1291C204.775 31.7399 210.105 37.5338 217.152 37.5338C224.199 37.5338 223.351 36.2216 225.43 33.8192V36.9281H230.821V11.3906H225.43V14.3582ZM217.738 32.4465C213.397 32.4465 209.984 28.7925 209.984 24.1291C209.984 19.4657 213.316 15.8521 217.738 15.8521C222.16 15.8521 225.43 19.4051 225.43 24.1291C225.43 28.853 222.119 32.4465 217.738 32.4465Z" fill="#003D6E"/>
<path d="M240.735 13.5911V11.3906H235.344V36.9281H240.735V23.2206C240.735 17.5075 244.37 14.8427 248.791 16.6394L250.952 11.7943C250.952 11.7943 249.215 10.7648 246.53 10.7648C243.845 10.7648 241.906 12.0972 240.735 13.5911Z" fill="#003D6E"/>
<path d="M162.273 7.79717C165.746 7.79717 168.593 8.98825 171.056 11.108L174.67 6.88872C171.48 3.86055 167.523 2.38684 162.293 2.38684C152.763 2.38684 145.01 10.2803 145.01 19.9704C145.01 29.6605 152.642 37.5136 162.394 37.5136C172.146 37.5136 171.541 36.4033 174.67 34.1221V18.2544H161.93V23.4831H169.219V30.7103C167.22 31.639 165.039 32.1033 162.697 32.1033C155.993 32.1033 150.764 26.7737 150.764 19.9704C150.764 13.1671 155.933 7.77698 162.293 7.77698" fill="#003D6E"/>
<path d="M26.8719 1.39771H0.401428V6.58597H10.8806V36.908H16.3322V6.58597H26.8719V1.39771Z" fill="#003D6E"/>
<path d="M62.2264 14.3582C60.1669 12.0366 57.2796 10.7648 53.948 10.7648C46.8812 10.7648 41.5709 16.5183 41.5709 24.1291C41.5709 31.7399 46.9014 37.5338 53.948 37.5338C60.9947 37.5338 60.1467 36.2216 62.2264 33.8192V36.9281H67.6174V11.3906H62.2264V14.3582ZM54.5336 32.4465C50.1925 32.4465 46.7802 28.7925 46.7802 24.1291C46.7802 19.4657 50.1117 15.8521 54.5336 15.8521C58.9554 15.8521 62.2264 19.4051 62.2264 24.1291C62.2264 28.853 58.915 32.4465 54.5336 32.4465Z" fill="#003D6E"/>
<path d="M126.151 0.125854H128.857H131.542V36.9282H128.857H126.151V0.125854Z" fill="#003D6E"/>
<path d="M83.8106 31.5582C80.7012 26.0671 77.8946 18.4967 76.3601 11.3906H70.9691C70.9691 11.3906 73.291 24.6338 80.58 36.9282H87.0411C94.3503 24.654 96.6521 11.3906 96.6521 11.3906H91.2611C89.7265 18.4967 86.92 26.0671 83.8106 31.5582Z" fill="#003D6E"/>
<path d="M30.9101 13.5911V11.3906H25.5191V36.9281H30.9101V23.2206C30.9101 17.5075 34.5445 14.8427 38.9663 16.6394L41.1267 11.7943C41.1267 11.7943 39.3903 10.7648 36.7049 10.7648C34.0195 10.7648 32.0812 12.0972 30.9101 13.5911Z" fill="#003D6E"/>
<path d="M109.938 10.7648C102.851 10.7648 97.2982 16.6394 97.2982 24.1291C97.2982 31.6188 103.032 37.5338 110.665 37.5338C118.297 37.5338 118.519 35.9591 120.679 33.4962L117.772 29.7211C116.015 31.5986 113.552 32.6685 110.806 32.6685C106.647 32.6685 103.477 29.9028 102.79 25.7239H122.315C122.476 25.1789 122.497 23.9474 122.497 23.6648C122.497 16.4375 116.964 10.7648 109.918 10.7648M103.093 21.222C104.062 17.669 106.667 15.4887 109.998 15.4887C113.33 15.4887 115.854 17.5681 116.783 21.222H103.093Z" fill="#003D6E"/>
<path d="M83.1442 59.9827C76.037 59.9827 70.2624 65.7564 70.2624 72.8625C70.2624 75.8099 71.2517 78.5151 72.9074 80.6752L83.6288 66.6043H81.3271C80.0954 66.6043 78.9647 66.685 78.1369 66.8465C77.6321 66.9475 77.1879 67.1291 76.8245 67.3916C76.4004 67.6944 75.8553 68.3202 75.512 68.946C75.4717 69.0268 75.4111 69.1277 75.3303 69.2892L74.7044 69.1479L75.7543 65.1104H89.1612L78.5003 79.3629C79.1868 79.3024 79.4695 79.2822 80.0348 79.2822C80.6002 79.2822 81.1251 79.3024 81.9934 79.3629L83.8913 79.4841C84.5778 79.5245 85.1432 79.5446 85.5874 79.5446C86.5565 79.5446 87.2026 79.4639 87.8286 79.2822C88.3132 79.1409 88.7775 78.8986 89.2016 78.616C89.9486 78.0911 90.6755 77.2634 91.1197 76.4357C91.1601 76.355 91.2408 76.2338 91.3014 76.0522L91.8668 76.1935C91.6851 76.9 91.5841 77.1625 91.3014 77.8085C90.7361 79.0803 90.09 79.9484 89.2016 80.5944C88.293 81.2808 87.2834 81.6038 86.0719 81.624H85.8902C85.0018 81.624 84.3153 81.5432 82.1953 81.2202C80.0348 80.8972 78.9445 80.7761 77.8542 80.7761C76.7639 80.7761 76.461 80.8367 75.7543 80.9376C74.8255 81.0789 74.4621 81.2 73.6343 81.5836C75.9966 84.1474 79.3685 85.7625 83.124 85.7625C90.2313 85.7625 96.0059 79.9888 96.0059 72.8827C96.0059 65.7766 90.2313 60.0029 83.124 60.0029L83.1442 59.9827Z" fill="#2167AE"/>
<path d="M149.492 68.9258C149.492 68.0981 149.492 67.8559 149.613 67.5127C149.654 67.3714 149.714 67.2503 149.795 67.1291C149.916 66.9273 150.017 66.8061 150.259 66.6042H146.221C146.483 66.8263 146.564 66.9273 146.685 67.1089C146.766 67.2503 146.827 67.3714 146.887 67.5127C146.988 67.8155 147.008 68.1183 147.029 68.8653V77.1423C147.029 77.5864 146.948 78.0507 146.827 78.3535C146.766 78.4747 146.706 78.5958 146.625 78.7169C146.524 78.8582 146.463 78.939 146.241 79.1611H150.219C150.017 78.9996 149.956 78.9188 149.835 78.7169C149.754 78.5958 149.694 78.4545 149.633 78.3334C149.532 78.0507 149.472 77.6268 149.472 77.223V68.9258H149.492Z" fill="#2167AE"/>
<path d="M176.306 68.9259C176.306 68.3606 176.346 67.9367 176.447 67.5935C176.487 67.432 176.568 67.2705 176.649 67.1292C176.77 66.9071 176.871 66.8062 177.154 66.6043H173.055C173.297 66.8062 173.378 66.8869 173.519 67.109C173.6 67.2503 173.681 67.4118 173.721 67.5531C173.822 67.8559 173.863 68.2193 173.863 68.8653V71.9137H168.229V69.6325C168.229 68.9461 168.229 68.4818 168.27 68.1386C168.27 67.9367 168.31 67.755 168.371 67.5935C168.451 67.3311 168.694 66.9475 168.896 66.7254C168.896 66.7052 168.976 66.6447 169.037 66.5841H165.019C165.261 66.8264 165.322 66.9071 165.423 67.0686C165.503 67.1897 165.584 67.3311 165.645 67.4926C165.746 67.8156 165.766 67.9771 165.786 68.825V76.4761C165.786 77.1625 165.786 77.4855 165.726 77.7883C165.726 77.9498 165.665 78.1113 165.604 78.293C165.503 78.5555 165.362 78.7775 165.12 78.9996C165.12 79.0198 165.039 79.0602 164.978 79.1207H168.956C168.774 78.939 168.714 78.8583 168.613 78.6968C168.532 78.5757 168.472 78.4545 168.411 78.3132C168.29 77.9902 168.249 77.748 168.229 77.2029V73.4076H173.863V76.4761C173.863 77.1625 173.863 77.4048 173.802 77.748C173.802 77.9297 173.741 78.1315 173.661 78.293C173.58 78.5353 173.418 78.7372 173.216 78.9592C173.176 78.9996 173.136 79.04 173.035 79.1207H177.053C176.891 78.9592 176.831 78.8785 176.709 78.7372C176.609 78.5958 176.528 78.4545 176.467 78.3334C176.346 78.0306 176.326 77.8085 176.306 77.2029V68.9057V68.9259Z" fill="#2167AE"/>
<path d="M144.242 78.293C143.798 77.8691 143.414 77.4653 142.829 76.8395C142.465 76.4357 142.142 76.0925 141.92 75.8301L139.962 73.5287C140.204 73.4681 140.305 73.4277 140.527 73.347C141.153 73.1047 141.638 72.8221 142.082 72.4587C142.587 72.0348 142.89 71.5907 143.071 71.0254C143.172 70.7024 143.233 70.3794 143.233 70.0564C143.233 69.2893 142.95 68.5827 142.385 67.9972C141.86 67.4522 141.153 67.0484 140.345 66.8667C139.78 66.7456 139.195 66.685 138.205 66.6447H133.804C134.026 66.8465 134.106 66.9475 134.228 67.109C134.329 67.2503 134.409 67.4118 134.45 67.5733C134.53 67.8559 134.571 68.2395 134.571 68.9057V77.1423C134.571 77.7278 134.53 78.0709 134.429 78.3536C134.369 78.4949 134.308 78.616 134.207 78.7573C134.086 78.8986 134.026 78.9794 133.783 79.2015H137.781C137.599 78.9996 137.539 78.939 137.438 78.7977C137.357 78.6766 137.276 78.5554 137.236 78.4141C137.135 78.1315 137.074 77.8287 137.074 77.2432V73.7911L139.396 76.577C139.497 76.7184 139.679 76.9 139.921 77.1827C140.184 77.4855 140.406 77.7076 140.547 77.8489C140.992 78.3132 141.416 78.6564 141.84 78.8785C142.203 79.0803 142.546 79.1611 143.091 79.1813H145.312C145.111 79.0198 145.01 78.939 144.848 78.7977C144.687 78.6564 144.505 78.4949 144.303 78.3132H144.242V78.293ZM139.437 72.1357C138.993 72.3982 138.528 72.5395 137.862 72.6404C137.599 72.6808 137.377 72.701 137.196 72.701H136.994V68.0578H137.317C137.923 68.0578 138.528 68.1386 139.013 68.2597C139.497 68.3808 139.619 68.5019 139.861 68.7038C140.285 69.0672 140.507 69.5921 140.507 70.2381C140.507 70.8841 140.345 71.2878 140.022 71.6512C139.881 71.8329 139.679 71.9742 139.437 72.1155V72.1357Z" fill="#2167AE"/>
<path d="M161.526 77.3442C160.779 77.6672 160.072 77.8085 159.325 77.8085C158.033 77.8085 156.922 77.3442 156.094 76.4559C155.287 75.5676 154.843 74.3564 154.843 72.9836C154.843 71.6108 155.246 70.4399 155.973 69.5921C156.296 69.2287 156.66 68.9057 157.104 68.6634C157.811 68.2597 158.639 68.0578 159.527 68.0578C160.415 68.0578 161.041 68.1991 161.788 68.5019C162.253 68.6836 162.414 68.7845 162.818 69.0672V66.7052C162.515 66.6043 162.394 66.5639 162.051 66.5033C161.324 66.362 160.637 66.2812 159.85 66.2812C158.497 66.2812 157.326 66.5033 156.276 66.9475C155.65 67.2099 155.065 67.5531 154.54 67.977C152.985 69.2287 152.157 71.0254 152.157 73.1047C152.157 75.1841 152.965 76.8597 154.459 78.0305C155.691 78.9996 157.266 79.4841 159.143 79.4841C161.021 79.4841 161.425 79.3024 162.677 78.9188C162.717 78.9188 162.798 78.8784 162.879 78.8582V76.577C162.576 76.7789 162.475 76.8395 162.293 76.9404C162.051 77.0817 161.788 77.2028 161.526 77.324V77.3442Z" fill="#2167AE"/>
<path d="M128.15 67.0888C128.231 67.2301 128.291 67.3714 128.332 67.5127C128.413 67.8155 128.453 68.1183 128.453 68.8249V73.5892C128.453 74.6188 128.453 75.2244 128.352 75.7291C128.312 76.0521 128.19 76.3751 128.029 76.6578C127.726 77.1625 127.161 77.5662 126.494 77.7277C126.232 77.7883 125.929 77.8287 125.606 77.8287C124.536 77.8287 123.607 77.4249 123.163 76.7587C122.82 76.254 122.719 75.7493 122.698 74.4775V69.6728C122.698 68.946 122.698 68.5827 122.698 68.2193C122.698 67.9972 122.739 67.7953 122.779 67.654C122.86 67.3714 123.082 66.9878 123.284 66.7456C123.284 66.7254 123.345 66.685 123.385 66.6244H119.306C119.549 66.8263 119.629 66.9273 119.751 67.1291C119.831 67.2704 119.892 67.4118 119.932 67.5733C119.993 67.755 120.013 67.9568 120.013 68.1587V73.246C120.013 74.5784 120.013 74.9216 120.074 75.4465C120.154 76.355 120.417 77.1019 120.962 77.7681C121.911 78.9592 123.446 79.585 125.384 79.585C127.322 79.585 127.221 79.4437 127.908 79.1812C128.635 78.9188 129.301 78.4545 129.786 77.9296C130.371 77.2836 130.694 76.4761 130.795 75.4869C130.856 74.9216 130.876 74.2352 130.876 73.246V68.7845C130.876 68.2395 130.876 67.9366 130.977 67.6338C131.017 67.4521 131.098 67.2906 131.199 67.1291C131.34 66.9071 131.421 66.8263 131.683 66.6042H127.686C127.928 66.8061 128.009 66.8869 128.13 67.0888H128.15Z" fill="#2167AE"/>
<path d="M114.38 77.4047C113.814 77.5057 113.188 77.5662 112.401 77.5864H109.473L117.085 66.6042H107.212L106 69.2892C106.404 69.0672 106.566 69.0066 106.909 68.8653C107.474 68.6432 108.08 68.4615 108.686 68.3606C109.211 68.2798 109.675 68.2395 110.463 68.2193H112.886L105.213 79.2014H116.076L117.328 76.3348C116.883 76.577 116.742 76.6578 116.399 76.8193C115.773 77.1019 115.086 77.324 114.36 77.4451V77.4047H114.38Z" fill="#2167AE"/>
<path d="M180.445 61.8804C179.657 61.8804 179.031 62.4658 179.031 63.2935C179.031 64.1212 179.657 64.7067 180.445 64.7067C181.232 64.7067 181.858 64.1414 181.858 63.2935C181.858 62.4456 181.232 61.8804 180.445 61.8804ZM180.445 64.5048C179.779 64.5048 179.254 64.0203 179.254 63.2935C179.254 62.5668 179.779 62.0822 180.445 62.0822C181.111 62.0822 181.636 62.5668 181.636 63.2935C181.636 64.0203 181.131 64.5048 180.445 64.5048Z" fill="#2167AE"/>
<path d="M179.94 64.0203V62.5264H180.627C180.909 62.5264 181.071 62.6879 181.071 62.9503C181.071 63.2127 180.95 63.2935 180.768 63.3339C180.869 63.3743 180.929 63.455 180.97 63.5963L181.111 64.0405H180.929L180.808 63.6367C180.768 63.4752 180.687 63.3944 180.505 63.3944H180.102V64.0405H179.92L179.94 64.0203ZM180.122 63.2128H180.627C180.808 63.2128 180.909 63.1118 180.909 62.9301C180.909 62.7484 180.808 62.6475 180.627 62.6475H180.122V63.2128Z" fill="#2167AE"/>
<path d="M189.733 78.616C188.844 78.071 188.178 77.324 187.734 76.3752C187.269 75.4264 187.047 74.3362 187.047 73.1048C187.047 71.8733 187.269 70.8033 187.734 69.8343C188.198 68.8653 188.864 68.1184 189.733 67.5733C190.601 67.0282 191.651 66.7456 192.842 66.7456C194.033 66.7456 195.305 67.1292 196.214 67.8761C197.123 68.6231 197.688 69.6526 197.93 70.985H196.476C196.254 70.016 195.83 69.2893 195.225 68.8048C194.599 68.3202 193.811 68.0578 192.842 68.0578C191.873 68.0578 191.146 68.2799 190.48 68.724C189.813 69.1681 189.309 69.7738 188.965 70.5409C188.622 71.308 188.44 72.1559 188.44 73.1249C188.44 74.094 188.622 75.0024 188.965 75.7695C189.309 76.5367 189.813 77.1221 190.46 77.5461C191.126 77.97 191.893 78.1719 192.822 78.1719C193.751 78.1719 194.558 77.9095 195.204 77.3644C195.851 76.8193 196.275 76.1127 196.456 75.1841H197.87C197.668 76.4963 197.102 77.5461 196.214 78.3132C195.305 79.0803 194.175 79.4639 192.822 79.4639C191.469 79.4639 190.581 79.2015 189.712 78.6362L189.733 78.616Z" fill="#2167AE"/>
<path d="M201.08 78.8583C200.434 78.4747 199.929 77.9297 199.586 77.2433C199.243 76.5569 199.041 75.7494 199.041 74.8409C199.041 73.9325 199.222 73.125 199.586 72.4184C199.949 71.7118 200.434 71.1668 201.08 70.7832C201.726 70.3996 202.453 70.1978 203.281 70.1978C204.109 70.1978 204.815 70.3996 205.461 70.7832C206.108 71.1668 206.592 71.7118 206.935 72.4184C207.279 73.125 207.46 73.9325 207.46 74.8409C207.46 75.7494 207.279 76.5367 206.935 77.2433C206.592 77.9499 206.087 78.4949 205.461 78.8785C204.815 79.2621 204.088 79.4639 203.281 79.4639C202.473 79.4639 201.726 79.2621 201.08 78.8785V78.8583ZM205.34 77.3442C205.845 76.7386 206.087 75.9109 206.087 74.8409C206.087 73.771 205.845 72.9231 205.34 72.2973C204.836 71.6715 204.169 71.3888 203.281 71.3888C202.392 71.3888 201.706 71.6916 201.201 72.2973C200.696 72.9029 200.434 73.7508 200.434 74.8409C200.434 75.9311 200.676 76.7386 201.201 77.3442C201.706 77.9499 202.392 78.2527 203.281 78.2527C204.169 78.2527 204.815 77.9499 205.32 77.3442H205.34Z" fill="#2167AE"/>
<path d="M212.912 79.1611H211.559L208.086 70.4803H209.5L212.266 77.5259L215.012 70.4803H216.425L212.952 79.1611H212.912Z" fill="#2167AE"/>
<path d="M218.969 78.8381C218.323 78.4344 217.839 77.8893 217.495 77.2029C217.152 76.5165 216.97 75.709 216.97 74.8006C216.97 73.8921 217.152 73.1452 217.495 72.4386C217.839 71.7522 218.323 71.187 218.969 70.8034C219.615 70.4198 220.342 70.1978 221.21 70.1978C222.079 70.1978 223.391 70.6015 224.078 71.4292C224.764 72.2367 225.107 73.3269 225.107 74.6794C225.107 76.032 225.107 74.9621 225.107 75.0832H218.343C218.384 76.133 218.666 76.9203 219.191 77.4654C219.716 78.0104 220.403 78.2931 221.271 78.2931C222.563 78.2931 223.371 77.6874 223.734 76.4963H225.027C224.825 77.425 224.401 78.1517 223.734 78.6766C223.068 79.2015 222.24 79.4438 221.251 79.4438C220.262 79.4438 219.636 79.2419 218.989 78.8381H218.969ZM223.734 74.0334C223.734 73.2057 223.472 72.5395 223.008 72.0752C222.543 71.6109 221.937 71.3686 221.19 71.3686C220.443 71.3686 219.737 71.6109 219.252 72.0954C218.767 72.5799 218.465 73.2259 218.364 74.0536H223.734V74.0334Z" fill="#2167AE"/>
<path d="M226.763 79.1611V70.4803H228.116V71.8127C228.338 71.3888 228.621 71.0658 228.964 70.8437C229.307 70.6015 229.731 70.4803 230.196 70.4803H230.943V71.7522H230.196C229.57 71.7522 229.065 71.9742 228.681 72.4184C228.298 72.8625 228.116 73.4681 228.116 74.2353V79.1611H226.763Z" fill="#2167AE"/>
<path d="M237.182 74.5986H232.013V73.3873H237.182V74.5986Z" fill="#2167AE"/>
<path d="M241.139 79.1611H239.746V67.0282H241.664L245.965 77.3845L250.265 67.0282H252.143V79.1611H250.77V69.2085L246.591 79.1611H245.339L241.159 69.2085V79.1611H241.139Z" fill="#2167AE"/>
<path d="M256.181 78.8583C255.535 78.4747 255.03 77.9297 254.687 77.2433C254.324 76.5569 254.142 75.7494 254.142 74.8409C254.142 73.9325 254.324 73.125 254.687 72.4184C255.051 71.7118 255.535 71.1668 256.181 70.7832C256.827 70.3996 257.554 70.1978 258.382 70.1978C259.21 70.1978 259.917 70.3996 260.563 70.7832C261.209 71.1668 261.694 71.7118 262.037 72.4184C262.38 73.125 262.562 73.9325 262.562 74.8409C262.562 75.7494 262.38 76.5367 262.037 77.2433C261.694 77.9499 261.189 78.4949 260.563 78.8785C259.917 79.2621 259.19 79.4639 258.382 79.4639C257.575 79.4639 256.827 79.2621 256.181 78.8785V78.8583ZM260.421 77.3442C260.926 76.7386 261.169 75.9109 261.169 74.8409C261.169 73.771 260.926 72.9231 260.421 72.2973C259.917 71.6715 259.25 71.3888 258.362 71.3888C257.474 71.3888 256.787 71.6916 256.282 72.2973C255.778 72.9029 255.515 73.7508 255.515 74.8409C255.515 75.9311 255.757 76.7386 256.282 77.3442C256.787 77.9499 257.474 78.2527 258.362 78.2527C259.25 78.2527 259.897 77.9499 260.401 77.3442H260.421Z" fill="#2167AE"/>
<path d="M264.238 79.1611V70.4803H265.59V71.8127C265.812 71.3888 266.095 71.0658 266.438 70.8437C266.782 70.6015 267.206 70.4803 267.67 70.4803H268.417V71.7522H267.67C267.044 71.7522 266.539 71.9742 266.156 72.4184C265.772 72.8625 265.59 73.4681 265.59 74.2353V79.1611H264.238Z" fill="#2167AE"/>
<path d="M270.921 78.8381C270.275 78.4344 269.79 77.8893 269.447 77.2029C269.104 76.5165 268.922 75.709 268.922 74.8006C268.922 73.8921 269.104 73.1452 269.447 72.4386C269.79 71.7522 270.275 71.187 270.921 70.8034C271.567 70.4198 272.294 70.1978 273.162 70.1978C274.03 70.1978 275.343 70.6015 276.029 71.4292C276.716 72.2367 277.059 73.3269 277.059 74.6794C277.059 76.032 277.059 74.9621 277.059 75.0832H270.295C270.335 76.133 270.618 76.9203 271.143 77.4654C271.668 78.0104 272.354 78.2931 273.223 78.2931C274.515 78.2931 275.322 77.6874 275.686 76.4963H276.978C276.776 77.425 276.352 78.1517 275.686 78.6766C275.02 79.2015 274.192 79.4438 273.202 79.4438C272.213 79.4438 271.587 79.2419 270.941 78.8381H270.921ZM275.686 74.0334C275.686 73.2057 275.423 72.5395 274.959 72.0752C274.495 71.6109 273.889 71.3686 273.142 71.3686C272.395 71.3686 271.688 71.6109 271.203 72.0954C270.719 72.5799 270.416 73.2259 270.315 74.0536H275.686V74.0334Z" fill="#2167AE"/>
<path d="M10.8806 79.1409V66.9272H16.1908C18.6945 66.9272 19.9867 68.4413 19.9867 70.5207C19.9867 72.6 18.6945 74.1141 16.1908 74.1141H12.2939V79.1611H10.8806V79.1409ZM12.2939 72.8423H16.11C17.7253 72.8423 18.5531 71.9338 18.5531 70.5005C18.5531 69.0672 17.7253 68.1587 16.11 68.1587H12.2939V72.8423Z" fill="#2167AE"/>
<path d="M20.6732 76.8798C20.6732 74.3563 23.5403 74.0131 26.5286 74.0131V73.1652C26.5286 72.1155 25.7613 71.3079 24.3682 71.3079C22.975 71.3079 22.3087 72.0145 22.2279 73.0845H20.8549C20.9963 71.1263 22.5106 70.0967 24.4287 70.0967C26.3469 70.0967 27.9016 71.3281 27.9016 73.145V79.1004H26.5488V77.5662C26.0238 78.6159 25.0547 79.3427 23.6615 79.3427C22.2683 79.3427 20.6934 78.2324 20.6934 76.8394V76.8798H20.6732ZM26.5488 75.3051V75.0023C24.2672 75.0023 22.0664 75.184 22.0664 76.7788C22.0664 78.3737 22.874 78.2324 23.9441 78.2324C25.5594 78.2324 26.569 76.9403 26.569 75.3051H26.5488Z" fill="#2167AE"/>
<path d="M30.3649 79.1408V70.3995H31.7177V71.7319C32.1417 70.9244 32.8282 70.3995 33.8176 70.3995H34.5646V71.6916H33.8176C32.5253 71.6916 31.7177 72.6606 31.7177 74.1948V79.161H30.3649V79.1408Z" fill="#2167AE"/>
<path d="M38.8451 79.1409C37.3308 79.1409 36.826 78.3536 36.826 77.2029V71.5705H35.2107V70.3996H36.826V68.1991H38.1788V70.3996H40.2989V71.5705H38.1788V77.1423C38.1788 77.7479 38.4817 77.9498 39.1076 77.9498H40.2989V79.1409H38.8451Z" fill="#2167AE"/>
<path d="M45.5889 74.8005C45.5889 72.0549 47.3254 70.1371 49.8492 70.1371C52.3731 70.1371 54.0692 72.0347 54.0692 74.8005C54.0692 77.5662 52.3529 79.4235 49.8492 79.4235C47.3456 79.4235 45.5889 77.546 45.5889 74.8005ZM52.6558 74.8005C52.6558 72.6404 51.6059 71.3282 49.8492 71.3282C48.0926 71.3282 46.9821 72.6202 46.9821 74.8005C46.9821 76.9807 48.0724 78.2324 49.8492 78.2324C51.626 78.2324 52.6558 76.9404 52.6558 74.8005Z" fill="#2167AE"/>
<path d="M56.7546 79.1408V71.5704H54.9172V70.3995H56.7546V68.8047C56.7546 67.5127 57.4209 66.5638 59.0564 66.5638H60.288V67.7549H59.2381C58.4708 67.7549 58.1478 68.0779 58.1478 68.8451V70.3793H60.288V71.5502H58.1478V79.1206H56.7546V79.1408Z" fill="#2167AE"/>
</g>
<defs>
<clipPath id="clip0_582_495">
<rect width="288" height="86" fill="white"/>
</clipPath>
</defs>
</svg>
